<svg width="25" height="24" viewBox="0 0 25 24" fill="none" xmlns="http://www.w3.org/2000/svg">
<path d="M22.595 18.33C22.595 18.69 22.515 19.06 22.345 19.42C22.175 19.78 21.955 20.12 21.665 20.44C21.175 20.98 20.635 21.37 20.025 21.62C19.425 21.87 18.775 22 18.075 22C17.055 22 15.965 21.76 14.815 21.27C13.665 20.78 12.515 20.12 11.375 19.29C10.225 18.45 9.135 17.52 8.095 16.49C7.065 15.45 6.135 14.36 5.305 13.22C4.485 12.08 3.825 10.94 3.345 9.81C2.865 8.67 2.625 7.58 2.625 6.54C2.625 5.86 2.745 5.21 2.985 4.61C3.225 4 3.605 3.44 4.135 2.94C4.775 2.31 5.475 2 6.215 2C6.495 2 6.775 2.06 7.025 2.18C7.285 2.3 7.515 2.48 7.695 2.74L10.015 6.01C10.195 6.26 10.325 6.49 10.415 6.71C10.505 6.92 10.555 7.13 10.555 7.32C10.555 7.56 10.485 7.8 10.345 8.03C10.215 8.26 10.025 8.5 9.785 8.74L9.025 9.53C8.915 9.64 8.865 9.77 8.865 9.93C8.865 10.01 8.875 10.08 8.895 10.16C8.925 10.24 8.955 10.3 8.975 10.36C9.155 10.69 9.465 11.12 9.905 11.64C10.355 12.16 10.835 12.69 11.355 13.22C11.895 13.75 12.415 14.24 12.945 14.69C13.465 15.13 13.895 15.43 14.235 15.61C14.285 15.63 14.345 15.66 14.415 15.69C14.495 15.72 14.575 15.73 14.665 15.73C14.835 15.73 14.965 15.67 15.075 15.56L15.835 14.81C16.085 14.56 16.325 14.37 16.555 14.25C16.785 14.11 17.015 14.04 17.265 14.04C17.455 14.04 17.655 14.08 17.875 14.17C18.095 14.26 18.325 14.39 18.575 14.56L21.885 16.91C22.145 17.09 22.325 17.3 22.435 17.55C22.535 17.8 22.595 18.05 22.595 18.33Z" fill="#5336E2"/>
</svg>
