<svg width="25" height="24" viewBox="0 0 25 24" fill="none" xmlns="http://www.w3.org/2000/svg">
<path d="M17.975 5.31L12.325 2.27C11.725 1.95 11.015 1.95 10.415 2.27L4.77498 5.31C4.36498 5.54 4.10498 5.98 4.10498 6.46C4.10498 6.95 4.35498 7.39 4.77498 7.61L10.425 10.65C10.725 10.81 11.055 10.89 11.375 10.89C11.695 10.89 12.035 10.81 12.325 10.65L17.975 7.61C18.385 7.39 18.645 6.95 18.645 6.46C18.645 5.98 18.385 5.54 17.975 5.31Z" fill="#5336E2"/>
<path d="M9.495 11.71L4.245 9.09C3.835 8.88 3.375 8.91 2.985 9.14C2.605 9.38 2.375 9.79 2.375 10.24V15.2C2.375 16.06 2.855 16.83 3.625 17.22L8.875 19.84C9.055 19.93 9.255 19.98 9.455 19.98C9.685 19.98 9.925 19.91 10.135 19.79C10.515 19.55 10.745 19.14 10.745 18.69V13.73C10.735 12.87 10.255 12.1 9.495 11.71Z" fill="#5336E2"/>
<path d="M20.375 10.24V12.7C19.895 12.56 19.385 12.5 18.875 12.5C17.515 12.5 16.185 12.97 15.135 13.81C13.695 14.94 12.875 16.65 12.875 18.5C12.875 18.99 12.935 19.48 13.065 19.95C12.915 19.93 12.765 19.87 12.625 19.78C12.245 19.55 12.015 19.14 12.015 18.69V13.73C12.015 12.87 12.495 12.1 13.255 11.71L18.505 9.09C18.915 8.88 19.375 8.91 19.765 9.14C20.145 9.38 20.375 9.79 20.375 10.24Z" fill="#5336E2"/>
<path d="M22.355 15.65C21.535 14.64 20.285 14 18.875 14C17.815 14 16.835 14.37 16.065 14.99C15.025 15.81 14.375 17.08 14.375 18.5C14.375 19.91 15.015 21.16 16.025 21.98C16.795 22.62 17.795 23 18.875 23C20.015 23 21.045 22.57 21.845 21.88C22.775 21.05 23.375 19.85 23.375 18.5C23.375 17.42 22.995 16.42 22.355 15.65ZM19.905 18.78C19.905 19.04 19.765 19.29 19.545 19.42L18.135 20.26C18.015 20.33 17.885 20.37 17.745 20.37C17.495 20.37 17.245 20.24 17.105 20.01C16.895 19.65 17.005 19.19 17.365 18.98L18.405 18.36V17.1C18.405 16.69 18.745 16.35 19.155 16.35C19.565 16.35 19.905 16.69 19.905 17.1V18.78Z" fill="#5336E2"/>
</svg>
