<svg width="25" height="24" viewBox="0 0 25 24" fill="none" xmlns="http://www.w3.org/2000/svg">
<path d="M14.125 2.92V11.23C14.125 12.25 13.295 13.08 12.275 13.08H3.125C2.575 13.08 2.125 12.63 2.125 12.08V5.69C2.125 3.65 3.775 2 5.815 2H13.195C13.715 2 14.125 2.41 14.125 2.92Z" fill="#898D8F"/>
<path d="M21.625 15.5C21.905 15.5 22.125 15.72 22.125 16V17C22.125 18.66 20.785 20 19.125 20C19.125 18.35 17.775 17 16.125 17C14.475 17 13.125 18.35 13.125 20H11.125C11.125 18.35 9.775 17 8.125 17C6.475 17 5.125 18.35 5.125 20C3.465 20 2.125 18.66 2.125 17V15C2.125 14.45 2.575 14 3.125 14H12.625C14.005 14 15.125 12.88 15.125 11.5V6C15.125 5.45 15.575 5 16.125 5H16.965C17.685 5 18.345 5.39 18.705 6.01L19.345 7.13C19.435 7.29 19.315 7.5 19.125 7.5C17.745 7.5 16.625 8.62 16.625 10V13C16.625 14.38 17.745 15.5 19.125 15.5H21.625Z" fill="#898D8F"/>
<path d="M8.125 22C9.22957 22 10.125 21.1046 10.125 20C10.125 18.8954 9.22957 18 8.125 18C7.02043 18 6.125 18.8954 6.125 20C6.125 21.1046 7.02043 22 8.125 22Z" fill="#898D8F"/>
<path d="M16.125 22C17.2296 22 18.125 21.1046 18.125 20C18.125 18.8954 17.2296 18 16.125 18C15.0204 18 14.125 18.8954 14.125 20C14.125 21.1046 15.0204 22 16.125 22Z" fill="#898D8F"/>
<path d="M22.125 12.53V14H19.125C18.575 14 18.125 13.55 18.125 13V10C18.125 9.45 18.575 9 19.125 9H20.415L21.865 11.54C22.035 11.84 22.125 12.18 22.125 12.53Z" fill="#898D8F"/>
</svg>
